<svg width="124" height="124" viewBox="0 0 124 124" fill="none" xmlns="http://www.w3.org/2000/svg">
<path d="M61.875 123.75C47.4375 123.75 34.6615 119.368 23.5469 110.605C12.4323 101.842 5.21354 90.64 1.89063 77C1.43229 75.2812 1.77604 73.7069 2.92187 72.2769C4.06771 70.8469 5.61458 70.015 7.5625 69.7812C9.39583 69.5521 11.0573 69.8958 12.5469 70.8125C14.0365 71.7292 15.0677 73.1042 15.6406 74.9375C18.3906 85.25 24.0625 93.6719 32.6562 100.203C41.25 106.734 50.9896 110 61.875 110C75.2813 110 86.6548 105.332 95.9956 95.9956C105.336 86.6594 110.005 75.2858 110 61.875C109.995 48.4642 105.327 37.0929 95.9956 27.7613C86.664 18.4296 75.2904 13.7592 61.875 13.75C53.9688 13.75 46.5781 15.5833 39.7031 19.25C32.8281 22.9167 27.0417 27.9583 22.3438 34.375H34.375C36.3229 34.375 37.9569 35.035 39.2769 36.355C40.5969 37.675 41.2546 39.3067 41.25 41.25C41.2454 43.1933 40.5854 44.8273 39.27 46.1519C37.9546 47.4765 36.3229 48.1342 34.375 48.125H6.875C4.92708 48.125 3.29542 47.465 1.98 46.145C0.664584 44.825 0.00458333 43.1933 0 41.25V13.75C0 11.8021 0.660001 10.1704 1.98 8.855C3.3 7.53958 4.93167 6.87958 6.875 6.875C8.81833 6.87042 10.4523 7.53042 11.7769 8.855C13.1015 10.1796 13.7592 11.8112 13.75 13.75V23.0312C19.5938 15.6979 26.7277 10.026 35.1519 6.01562C43.576 2.00521 52.4837 0 61.875 0C70.4688 0 78.5194 1.63396 86.0269 4.90188C93.5344 8.16979 100.066 12.579 105.621 18.1294C111.176 23.6798 115.587 30.211 118.855 37.7231C122.123 45.2352 123.755 53.2858 123.75 61.875C123.745 70.4642 122.114 78.5148 118.855 86.0269C115.596 93.539 111.185 100.07 105.621 105.621C100.056 111.171 93.5252 115.583 86.0269 118.855C78.5285 122.128 70.4779 123.759 61.875 123.75ZM68.75 59.125L85.9375 76.3125C87.1979 77.5729 87.8281 79.1771 87.8281 81.125C87.8281 83.0729 87.1979 84.6771 85.9375 85.9375C84.6771 87.1979 83.0729 87.8281 81.125 87.8281C79.1771 87.8281 77.5729 87.1979 76.3125 85.9375L57.0625 66.6875C56.375 66 55.8594 65.2277 55.5156 64.3706C55.1719 63.5135 55 62.6244 55 61.7031V34.375C55 32.4271 55.66 30.7954 56.98 29.48C58.3 28.1646 59.9317 27.5046 61.875 27.5C63.8183 27.4954 65.4523 28.1554 66.7769 29.48C68.1015 30.8046 68.7592 32.4362 68.75 34.375V59.125Z" fill="#B8B8B8"/>
</svg>
